<svg width="28" height="28" viewBox="0 0 28 28" fill="none" xmlns="http://www.w3.org/2000/svg">
<path fill-rule="evenodd" clip-rule="evenodd" d="M15.8139 2.46891L15.701 2.4057C14.6009 1.81578 13.2696 1.83685 12.1861 2.46891L4.83188 6.75885L4.73213 6.81942C3.78063 7.42053 3.19995 8.46915 3.19995 9.60003C3.19995 10.7699 3.82137 11.8517 4.83188 12.4412L16.609 19.3109C17.0577 19.5727 17.282 19.7036 17.5279 19.7147C17.5582 19.7161 17.5885 19.7161 17.6188 19.7147C17.8647 19.7035 18.089 19.5727 18.5377 19.3109C19.1373 18.9611 19.4371 18.7862 19.4603 18.5292C19.4629 18.4993 19.4629 18.4693 19.4603 18.4395C19.4371 18.1824 19.1373 18.0076 18.5377 17.6578L6.04117 10.3681L5.98426 10.332C5.74484 10.1669 5.59999 9.89371 5.59999 9.60003C5.59999 9.28375 5.76798 8.99128 6.04117 8.83191L13.3953 4.54198L13.4712 4.5013C13.8302 4.325 14.2559 4.33856 14.6046 4.54198L21.8046 8.74198L21.8721 8.78437C22.2007 9.00649 22.4 9.37839 22.4 9.77851V18.2215L22.3974 18.3011C22.3711 18.697 22.1503 19.0565 21.8046 19.2581L14.6046 23.4581L14.5288 23.4988C14.1698 23.6751 13.7441 23.6615 13.3953 23.4581L6.19534 19.2581L6.12791 19.2157C5.79923 18.9936 5.59999 18.6217 5.59999 18.2215L5.59996 15.8458C5.59996 15.3288 5.59996 15.0703 5.48639 14.8528C5.474 14.8291 5.46066 14.8059 5.44641 14.7832C5.31576 14.5755 5.09248 14.4453 4.64591 14.1848C4.03175 13.8265 3.72467 13.6474 3.48674 13.7596C3.46236 13.7711 3.43894 13.7845 3.41673 13.7998C3.19995 13.9488 3.19995 14.3043 3.19995 15.0153V18.2215L3.20197 18.3413C3.24291 19.5754 3.91463 20.7061 4.98605 21.3311L12.1861 25.5311L12.299 25.5943C13.3991 26.1843 14.7304 26.1632 15.8139 25.5311L23.0139 21.3311L23.1164 21.2691C24.1618 20.6119 24.8 19.4619 24.8 18.2215V9.77851L24.798 9.65877C24.7571 8.42464 24.0853 7.29391 23.0139 6.66891L15.8139 2.46891ZM25.4663 21.8846C25.2204 21.8958 24.9961 22.0267 24.5474 22.2885C23.9478 22.6383 23.6479 22.8132 23.6248 23.0702C23.6221 23.1001 23.6221 23.1301 23.6248 23.1599C23.648 23.4169 23.9478 23.5918 24.5474 23.9416L26.5541 25.1122C27.1681 25.4705 27.4752 25.6496 27.7131 25.5375C27.7375 25.526 27.761 25.5125 27.7832 25.4972C28 25.3482 28 24.9927 28 24.2818C28 23.7648 28 23.5064 27.8864 23.2889C27.874 23.2651 27.8606 23.2419 27.8464 23.2192C27.7157 23.0115 27.4925 22.8813 27.0459 22.6208L26.4761 22.2884C26.0274 22.0267 25.8031 21.8958 25.5572 21.8846C25.5269 21.8833 25.4966 21.8833 25.4663 21.8846Z" fill="#EC9B3E"/>
</svg>
